<?xml version="1.0" encoding="utf-8" standalone="no"?>
<!DOCTYPE svg PUBLIC "-//W3C//DTD SVG 1.1//EN"
  "http://www.w3.org/Graphics/SVG/1.1/DTD/svg11.dtd">
<svg height="288pt" version="1.1" viewBox="0 0 432 288" width="432pt" xmlns="http://www.w3.org/2000/svg" xmlns:xlink="http://www.w3.org/1999/xlink">
 <metadata>
  <rdf:RDF xmlns:cc="http://creativecommons.org/ns#" xmlns:dc="http://purl.org/dc/elements/1.1/" xmlns:rdf="http://www.w3.org/1999/02/22-rdf-syntax-ns#">
   <cc:Work>
    <dc:type rdf:resource="http://purl.org/dc/dcmitype/StillImage"/>
    <dc:date>2021-10-01T12:48:24.057345</dc:date>
    <dc:format>image/svg+xml</dc:format>
    <dc:creator>
     <cc:Agent>
      <dc:title>Matplotlib v3.4.1, https://matplotlib.org/</dc:title>
     </cc:Agent>
    </dc:creator>
   </cc:Work>
  </rdf:RDF>
 </metadata>
 <defs>
  <style type="text/css">*{stroke-linecap:butt;stroke-linejoin:round;}</style>
 </defs>
 <g id="figure_1">
  <g id="patch_1">
   <path d="M 0 288 
L 432 288 
L 432 0 
L 0 0 
z
" style="fill:none;"/>
  </g>
  <g id="axes_1">
   <g id="patch_2">
    <path d="M 90.844802 252 
L 351.955198 252 
L 351.955198 34.56 
L 90.844802 34.56 
z
" style="fill:#080c80;"/>
   </g>
   <g id="matplotlib.axis_1"/>
   <g id="matplotlib.axis_2"/>
   <g id="LineCollection_1">
    <path clip-path="url(#pcb41fd072d)" d="M 102.713456 200.363708 
L 142.264311 181.58045 
" style="fill:none;stroke:#ffffff;stroke-width:8;"/>
    <path clip-path="url(#pcb41fd072d)" d="M 102.713456 200.363708 
L 114.854575 154.922675 
" style="fill:none;stroke:#ffffff;stroke-width:8;"/>
    <path clip-path="url(#pcb41fd072d)" d="M 108.258731 206.887561 
L 151.796923 189.090928 
" style="fill:none;stroke:#ffffff;stroke-width:8;"/>
    <path clip-path="url(#pcb41fd072d)" d="M 108.258731 206.887561 
L 151.436966 225.540558 
" style="fill:none;stroke:#ffffff;stroke-width:8;"/>
    <path clip-path="url(#pcb41fd072d)" d="M 128.917597 102.288461 
L 155.013006 74.670819 
" style="fill:none;stroke:#ffffff;stroke-width:8;"/>
    <path clip-path="url(#pcb41fd072d)" d="M 128.917597 102.288461 
L 180.238569 129.471179 
" style="fill:none;stroke:#ffffff;stroke-width:8;"/>
    <path clip-path="url(#pcb41fd072d)" d="M 128.917597 102.288461 
L 114.854575 154.922675 
" style="fill:none;stroke:#ffffff;stroke-width:8;"/>
    <path clip-path="url(#pcb41fd072d)" d="M 142.264311 181.58045 
L 180.238569 129.471179 
" style="fill:none;stroke:#ffffff;stroke-width:8;"/>
    <path clip-path="url(#pcb41fd072d)" d="M 142.264311 181.58045 
L 114.854575 154.922675 
" style="fill:none;stroke:#ffffff;stroke-width:8;"/>
    <path clip-path="url(#pcb41fd072d)" d="M 155.013006 74.670819 
L 180.238569 129.471179 
" style="fill:none;stroke:#ffffff;stroke-width:8;"/>
    <path clip-path="url(#pcb41fd072d)" d="M 155.013006 74.670819 
L 189.1545 71.843816 
" style="fill:none;stroke:#ffffff;stroke-width:8;"/>
    <path clip-path="url(#pcb41fd072d)" d="M 180.238569 129.471179 
L 189.1545 71.843816 
" style="fill:none;stroke:#ffffff;stroke-width:8;"/>
    <path clip-path="url(#pcb41fd072d)" d="M 180.238569 129.471179 
L 213.809226 122.702682 
" style="fill:none;stroke:#ffffff;stroke-width:8;"/>
    <path clip-path="url(#pcb41fd072d)" d="M 180.238569 129.471179 
L 114.854575 154.922675 
" style="fill:none;stroke:#ffffff;stroke-width:8;"/>
    <path clip-path="url(#pcb41fd072d)" d="M 189.1545 71.843816 
L 213.809226 122.702682 
" style="fill:none;stroke:#ffffff;stroke-width:8;"/>
    <path clip-path="url(#pcb41fd072d)" d="M 189.1545 71.843816 
L 215.684833 47.923024 
" style="fill:none;stroke:#ffffff;stroke-width:8;"/>
    <path clip-path="url(#pcb41fd072d)" d="M 189.1545 71.843816 
L 245.042169 104.245617 
" style="fill:none;stroke:#ffffff;stroke-width:8;"/>
    <path clip-path="url(#pcb41fd072d)" d="M 189.806886 242.116364 
L 151.436966 225.540558 
" style="fill:none;stroke:#ffffff;stroke-width:8;"/>
    <path clip-path="url(#pcb41fd072d)" d="M 189.806886 242.116364 
L 189.612345 173.633529 
" style="fill:none;stroke:#ffffff;stroke-width:8;"/>
    <path clip-path="url(#pcb41fd072d)" d="M 189.806886 242.116364 
L 226.992844 234.940126 
" style="fill:none;stroke:#ffffff;stroke-width:8;"/>
    <path clip-path="url(#pcb41fd072d)" d="M 213.809226 122.702682 
L 245.042169 104.245617 
" style="fill:none;stroke:#ffffff;stroke-width:8;"/>
    <path clip-path="url(#pcb41fd072d)" d="M 215.684833 47.923024 
L 237.64847 44.443636 
" style="fill:none;stroke:#ffffff;stroke-width:8;"/>
    <path clip-path="url(#pcb41fd072d)" d="M 215.684833 47.923024 
L 245.042169 104.245617 
" style="fill:none;stroke:#ffffff;stroke-width:8;"/>
    <path clip-path="url(#pcb41fd072d)" d="M 227.427768 158.17613 
L 298.875904 118.870604 
" style="fill:none;stroke:#ffffff;stroke-width:8;"/>
    <path clip-path="url(#pcb41fd072d)" d="M 227.427768 158.17613 
L 265.610755 182.509189 
" style="fill:none;stroke:#ffffff;stroke-width:8;"/>
    <path clip-path="url(#pcb41fd072d)" d="M 227.427768 158.17613 
L 189.612345 173.633529 
" style="fill:none;stroke:#ffffff;stroke-width:8;"/>
    <path clip-path="url(#pcb41fd072d)" d="M 227.427768 158.17613 
L 226.992844 234.940126 
" style="fill:none;stroke:#ffffff;stroke-width:8;"/>
    <path clip-path="url(#pcb41fd072d)" d="M 237.64847 44.443636 
L 245.042169 104.245617 
" style="fill:none;stroke:#ffffff;stroke-width:8;"/>
    <path clip-path="url(#pcb41fd072d)" d="M 237.64847 44.443636 
L 275.595545 63.906463 
" style="fill:none;stroke:#ffffff;stroke-width:8;"/>
    <path clip-path="url(#pcb41fd072d)" d="M 245.042169 104.245617 
L 278.572052 104.965959 
" style="fill:none;stroke:#ffffff;stroke-width:8;"/>
    <path clip-path="url(#pcb41fd072d)" d="M 245.042169 104.245617 
L 275.595545 63.906463 
" style="fill:none;stroke:#ffffff;stroke-width:8;"/>
    <path clip-path="url(#pcb41fd072d)" d="M 264.178803 227.763888 
L 308.758461 196.231935 
" style="fill:none;stroke:#ffffff;stroke-width:8;"/>
    <path clip-path="url(#pcb41fd072d)" d="M 264.178803 227.763888 
L 265.610755 182.509189 
" style="fill:none;stroke:#ffffff;stroke-width:8;"/>
    <path clip-path="url(#pcb41fd072d)" d="M 264.178803 227.763888 
L 226.992844 234.940126 
" style="fill:none;stroke:#ffffff;stroke-width:8;"/>
    <path clip-path="url(#pcb41fd072d)" d="M 308.758461 196.231935 
L 326.029392 141.084839 
" style="fill:none;stroke:#ffffff;stroke-width:8;"/>
    <path clip-path="url(#pcb41fd072d)" d="M 308.758461 196.231935 
L 265.610755 182.509189 
" style="fill:none;stroke:#ffffff;stroke-width:8;"/>
    <path clip-path="url(#pcb41fd072d)" d="M 312.101935 105.686301 
L 313.542619 83.369289 
" style="fill:none;stroke:#ffffff;stroke-width:8;"/>
    <path clip-path="url(#pcb41fd072d)" d="M 312.101935 105.686301 
L 338.985644 87.718524 
" style="fill:none;stroke:#ffffff;stroke-width:8;"/>
    <path clip-path="url(#pcb41fd072d)" d="M 312.101935 105.686301 
L 278.572052 104.965959 
" style="fill:none;stroke:#ffffff;stroke-width:8;"/>
    <path clip-path="url(#pcb41fd072d)" d="M 313.542619 83.369289 
L 338.985644 87.718524 
" style="fill:none;stroke:#ffffff;stroke-width:8;"/>
    <path clip-path="url(#pcb41fd072d)" d="M 313.542619 83.369289 
L 278.572052 104.965959 
" style="fill:none;stroke:#ffffff;stroke-width:8;"/>
    <path clip-path="url(#pcb41fd072d)" d="M 313.542619 83.369289 
L 275.595545 63.906463 
" style="fill:none;stroke:#ffffff;stroke-width:8;"/>
    <path clip-path="url(#pcb41fd072d)" d="M 340.086544 96.199532 
L 298.875904 118.870604 
" style="fill:none;stroke:#ffffff;stroke-width:8;"/>
    <path clip-path="url(#pcb41fd072d)" d="M 340.086544 96.199532 
L 326.029392 141.084839 
" style="fill:none;stroke:#ffffff;stroke-width:8;"/>
    <path clip-path="url(#pcb41fd072d)" d="M 151.796923 189.090928 
L 151.436966 225.540558 
" style="fill:none;stroke:#ffffff;stroke-width:8;"/>
    <path clip-path="url(#pcb41fd072d)" d="M 151.796923 189.090928 
L 189.612345 173.633529 
" style="fill:none;stroke:#ffffff;stroke-width:8;"/>
    <path clip-path="url(#pcb41fd072d)" d="M 151.436966 225.540558 
L 189.612345 173.633529 
" style="fill:none;stroke:#ffffff;stroke-width:8;"/>
    <path clip-path="url(#pcb41fd072d)" d="M 278.572052 104.965959 
L 275.595545 63.906463 
" style="fill:none;stroke:#ffffff;stroke-width:8;"/>
    <path clip-path="url(#pcb41fd072d)" d="M 298.875904 118.870604 
L 326.029392 141.084839 
" style="fill:none;stroke:#ffffff;stroke-width:8;"/>
    <path clip-path="url(#pcb41fd072d)" d="M 298.875904 118.870604 
L 265.610755 182.509189 
" style="fill:none;stroke:#ffffff;stroke-width:8;"/>
    <path clip-path="url(#pcb41fd072d)" d="M 326.029392 141.084839 
L 265.610755 182.509189 
" style="fill:none;stroke:#ffffff;stroke-width:8;"/>
    <path clip-path="url(#pcb41fd072d)" d="M 265.610755 182.509189 
L 226.992844 234.940126 
" style="fill:none;stroke:#ffffff;stroke-width:8;"/>
    <path clip-path="url(#pcb41fd072d)" d="M 189.612345 173.633529 
L 226.992844 234.940126 
" style="fill:none;stroke:#ffffff;stroke-width:8;"/>
   </g>
   <g id="patch_3">
    <path d="M 90.844802 252 
L 90.844802 34.56 
" style="fill:none;stroke:#000000;stroke-linecap:square;stroke-linejoin:miter;stroke-width:0.8;"/>
   </g>
   <g id="patch_4">
    <path d="M 351.955198 252 
L 351.955198 34.56 
" style="fill:none;stroke:#000000;stroke-linecap:square;stroke-linejoin:miter;stroke-width:0.8;"/>
   </g>
   <g id="patch_5">
    <path d="M 90.844802 252 
L 351.955198 252 
" style="fill:none;stroke:#000000;stroke-linecap:square;stroke-linejoin:miter;stroke-width:0.8;"/>
   </g>
   <g id="patch_6">
    <path d="M 90.844802 34.56 
L 351.955198 34.56 
" style="fill:none;stroke:#000000;stroke-linecap:square;stroke-linejoin:miter;stroke-width:0.8;"/>
   </g>
  </g>
 </g>
 <defs>
  <clipPath id="pcb41fd072d">
   <rect height="217.44" width="261.110396" x="90.844802" y="34.56"/>
  </clipPath>
 </defs>
</svg>
